<mxfile host="app.diagrams.net" modified="2023-06-06T02:52:27.310Z" agent="Mozilla/5.0 (Macintosh; Intel Mac OS X 10_15_7) AppleWebKit/537.36 (KHTML, like Gecko) Chrome/113.0.0.0 Safari/537.36" version="21.2.9" etag="lOOlAATUEbtI4gmm0RUP" type="github">
  <diagram name="Page-1" id="faPqjYrYyB1WU2Nwsrin">
    <mxGraphModel>
      <root>
        <mxCell id="0" />
        <mxCell id="1" parent="0" />
      </root>
    </mxGraphModel>
  </diagram>
</mxfile>
